<?xml version="1.0" encoding="UTF-8"?>
<svg width="24" height="24" viewBox="0 0 24 24" fill="none" xmlns="http://www.w3.org/2000/svg">
    <path d="M18 8C19.6569 8 21 6.65685 21 5C21 3.34315 19.6569 2 18 2C16.3431 2 15 3.34315 15 5C15 5.12 15.0072 5.23825 15.021 5.354L8.42 8.94625C7.84375 8.36375 7.0425 8 6.15 8C4.4025 8 3 9.4025 3 11.15C3 12.8975 4.4025 14.3 6.15 14.3C7.0425 14.3 7.84375 13.9363 8.42 13.3538L15.021 16.946C15.0072 17.0618 15 17.18 15 17.3C15 18.9569 16.3431 20.3 18 20.3C19.6569 20.3 21 18.9569 21 17.3C21 15.6431 19.6569 14.3 18 14.3C17.1075 14.3 16.3063 14.6637 15.73 15.2462L9.129 11.654C9.14275 11.5403 9.15 11.4247 9.15 11.3075C9.15 11.1903 9.14275 11.0747 9.129 10.961L15.73 7.36875C16.3063 7.95125 17.1075 8.315 18 8.315" fill="white"/>
</svg>
